<svg t="1567839808265" class="icon" viewBox="0 0 1024 1024" version="1.1" xmlns="http://www.w3.org/2000/svg" p-id="2710" width="200" height="200"><path d="M129.136947 404.588165C123.931361 418.510397 131.563571 427.324442 129.136947 480.330127 128.484244 494.58731 67.732234 559.122294 43.622052 626.149463 19.703992 692.642493 16.412764 762.104873 53.339653 789.405225 90.266537 816.705577 124.644291 698.531958 129.136947 715.726879 131.097006 723.228682 133.541274 731.033149 136.483369 739.051254 148.300769 771.257283 168.149893 806.910106 196.91307 840.24106 202.75607 847.011968 161.321467 859.46303 136.483369 902.220488 111.645261 944.97794 143.59958 1022.718756 267.126897 1022.718735 426.49557 1022.718735 462.117473 966.017091 465.365965 966.265539 477.232364 967.17311 478.05246 966.265554 490.631736 966.265554 506.021233 966.265559 499.653811 967.517548 513.953976 966.265539 521.676887 965.589386 599.131315 1034.126249 706.362491 1022.718735 889.053425 1003.283625 861.116682 941.324047 846.776433 902.220488 831.809475 861.408 778.886574 842.284001 781.222789 839.671229 824.986742 790.726641 831.921423 760.677755 846.776422 715.726894 852.883052 697.248384 895.274747 817.390054 927.923809 789.405225 941.528479 777.744113 968.737761 729.156045 941.528479 626.149463 914.319196 523.142886 861.709373 499.645297 862.852454 480.330122 865.231565 440.1293 863.85026 411.898998 861.844127 404.588165 852.126515 369.174856 831.809449 376.994237 831.809449 369.174856 831.809449 165.285202 680.298015 0 493.399163 0 306.500316 0 154.988882 165.285202 154.988882 369.174856 154.988882 385.357952 140.79807 373.400724 129.136947 404.588165Z" p-id="2711"></path></svg>